<svg xmlns="http://www.w3.org/2000/svg" xmlns:xlink="http://www.w3.org/1999/xlink" xmlns:lucid="lucid" width="1258.71" height="1265.5"><g transform="translate(-239.5 -46.99999999994924)" lucid:page-tab-id="0_0"><path d="M0 0h1760v1360H0z" fill="#fff"/><path d="M824.57 165a5 5 0 0 1 5-5h290a5 5 0 0 1 5 5v190a5 5 0 0 1-5 5h-290a5 5 0 0 1-5-5z" fill="#fff"/><path d="M824.57 200v-35a5 5 0 0 1 5-5h290a5 5 0 0 1 5 5v35" fill="#ccc"/><path d="M824.57 165a5 5 0 0 1 5-5h290a5 5 0 0 1 5 5v190a5 5 0 0 1-5 5h-290a5 5 0 0 1-5-5zM824.57 200h300M974.57 200v160" stroke="#333" fill="none"/><use xlink:href="#a" transform="matrix(1,0,0,1,834.5730768458386,160) translate(0 23.6)"/><use xlink:href="#b" transform="matrix(1,0,0,1,829.5730768458386,202.5) translate(0 17.1)"/><use xlink:href="#c" transform="matrix(1,0,0,1,979.5730768458386,202.5) translate(0 17.1)"/><use xlink:href="#d" transform="matrix(1,0,0,1,979.5730768458386,202.5) translate(39 17.1)"/><use xlink:href="#e" transform="matrix(1,0,0,1,829.5730768458386,234.5) translate(0 17.1)"/><use xlink:href="#f" transform="matrix(1,0,0,1,979.5730768458386,234.5) translate(0 17.1)"/><use xlink:href="#g" transform="matrix(1,0,0,1,979.5730768458386,234.5) translate(79.9 17.1)"/><use xlink:href="#h" transform="matrix(1,0,0,1,829.5730768458386,266.5) translate(0 17.1)"/><use xlink:href="#f" transform="matrix(1,0,0,1,979.5730768458386,266.5) translate(0 17.1)"/><use xlink:href="#g" transform="matrix(1,0,0,1,979.5730768458386,266.5) translate(79.9 17.1)"/><use xlink:href="#i" transform="matrix(1,0,0,1,829.5730768458386,298.5) translate(0 17.1)"/><use xlink:href="#f" transform="matrix(1,0,0,1,979.5730768458386,298.5) translate(0 17.1)"/><use xlink:href="#g" transform="matrix(1,0,0,1,979.5730768458386,298.5) translate(79.9 17.1)"/><use xlink:href="#j" transform="matrix(1,0,0,1,829.5730768458386,330.5) translate(0 17.1)"/><use xlink:href="#k" transform="matrix(1,0,0,1,979.5730768458386,330.5) translate(0 17.1)"/><path d="M614.57 865a5 5 0 0 1 5-5h210a5 5 0 0 1 5 5v158a5 5 0 0 1-5 5h-210a5 5 0 0 1-5-5z" fill="#fff"/><path d="M614.57 900v-35a5 5 0 0 1 5-5h210a5 5 0 0 1 5 5v35" fill="#ccc"/><path d="M614.57 865a5 5 0 0 1 5-5h210a5 5 0 0 1 5 5v158a5 5 0 0 1-5 5h-210a5 5 0 0 1-5-5zM614.57 900h220M703.75 900v128" stroke="#333" fill="none"/><use xlink:href="#l" transform="matrix(1,0,0,1,624.5730768458386,860) translate(0 23.6)"/><use xlink:href="#b" transform="matrix(1,0,0,1,619.5730768458386,902.5) translate(0 17.1)"/><use xlink:href="#c" transform="matrix(1,0,0,1,708.7504051920862,902.5) translate(0 17.1)"/><use xlink:href="#d" transform="matrix(1,0,0,1,708.7504051920862,902.5) translate(39 17.1)"/><use xlink:href="#m" transform="matrix(1,0,0,1,619.5730768458386,934.5) translate(0 17.1)"/><use xlink:href="#n" transform="matrix(1,0,0,1,708.7504051920862,934.5) translate(0 17.1)"/><use xlink:href="#d" transform="matrix(1,0,0,1,708.7504051920862,934.5) translate(37.95 17.1)"/><use xlink:href="#o" transform="matrix(1,0,0,1,619.5730768458386,966.5) translate(0 17.1)"/><use xlink:href="#n" transform="matrix(1,0,0,1,708.7504051920862,966.5) translate(0 17.1)"/><use xlink:href="#d" transform="matrix(1,0,0,1,708.7504051920862,966.5) translate(37.95 17.1)"/><use xlink:href="#p" transform="matrix(1,0,0,1,619.5730768458386,998.5) translate(0 17.1)"/><use xlink:href="#q" transform="matrix(1,0,0,1,708.7504051920862,998.5) translate(0 17.1)"/><path d="M453.15 76a8 8 0 0 1 8-8h836.75a8 8 0 0 1 8 8v25.16a8 8 0 0 1-8 8H461.15a8 8 0 0 1-8-8z" stroke="#000" stroke-opacity="0" stroke-width="2" fill="#fff" fill-opacity="0"/><use xlink:href="#r" transform="matrix(1,0,0,1,457.1465527853429,71.99999999994924) translate(113.11000000000001 25.782777777777778)"/><use xlink:href="#s" transform="matrix(1,0,0,1,457.1465527853429,71.99999999994924) translate(239.70506172839507 25.782777777777778)"/><use xlink:href="#t" transform="matrix(1,0,0,1,457.1465527853429,71.99999999994924) translate(283.33592592592595 25.782777777777778)"/><use xlink:href="#u" transform="matrix(1,0,0,1,457.1465527853429,71.99999999994924) translate(321.1396296296296 25.782777777777778)"/><use xlink:href="#t" transform="matrix(1,0,0,1,457.1465527853429,71.99999999994924) translate(405.4149382716049 25.782777777777778)"/><use xlink:href="#v" transform="matrix(1,0,0,1,457.1465527853429,71.99999999994924) translate(443.2186419753086 25.782777777777778)"/><use xlink:href="#w" transform="matrix(1,0,0,1,457.1465527853429,71.99999999994924) translate(536.1618518518519 25.782777777777778)"/><use xlink:href="#x" transform="matrix(1,0,0,1,457.1465527853429,71.99999999994924) translate(643.8914814814815 25.782777777777778)"/><path d="M541.97 107.8h681.06M542 107.8h-1.03M1223 107.8h1.03" stroke="#a9afb8" stroke-width="2" fill="none"/><path d="M453.15 117.16a8 8 0 0 1 8-8h837.7a8 8 0 0 1 8 8V120a8 8 0 0 1-8 8h-837.7a8 8 0 0 1-8-8z" stroke="#000" stroke-opacity="0" stroke-width="2" fill="#fff" fill-opacity="0"/><use xlink:href="#y" transform="matrix(1,0,0,1,457.1465527853434,113.15522395684805) translate(289.79055555555556 14.917037037037037)"/><use xlink:href="#z" transform="matrix(1,0,0,1,457.1465527853434,113.15522395684805) translate(362.7878806584362 14.917037037037037)"/><use xlink:href="#A" transform="matrix(1,0,0,1,457.1465527853434,113.15522395684805) translate(416.23993827160496 14.917037037037037)"/><use xlink:href="#B" transform="matrix(1,0,0,1,457.1465527853434,113.15522395684805) translate(428.68942386831276 14.917037037037037)"/><use xlink:href="#C" transform="matrix(1,0,0,1,457.1465527853434,113.15522395684805) translate(503.34384773662555 14.917037037037037)"/><use xlink:href="#D" transform="matrix(1,0,0,1,457.1465527853434,113.15522395684805) translate(528.8376748971193 14.917037037037037)"/><path d="M840 1065a5 5 0 0 1 5-5h270a5 5 0 0 1 5 5v222a5 5 0 0 1-5 5H845a5 5 0 0 1-5-5z" fill="#fff"/><path d="M840 1100v-35a5 5 0 0 1 5-5h270a5 5 0 0 1 5 5v35" fill="#ccc"/><path d="M840 1065a5 5 0 0 1 5-5h270a5 5 0 0 1 5 5v222a5 5 0 0 1-5 5H845a5 5 0 0 1-5-5zM840 1100h280M963.54 1100v192" stroke="#333" fill="none"/><use xlink:href="#E" transform="matrix(1,0,0,1,850,1060) translate(0 23.6)"/><use xlink:href="#b" transform="matrix(1,0,0,1,845,1102.5) translate(0 17.1)"/><use xlink:href="#c" transform="matrix(1,0,0,1,968.5410225110805,1102.5) translate(0 17.1)"/><use xlink:href="#d" transform="matrix(1,0,0,1,968.5410225110805,1102.5) translate(39 17.1)"/><use xlink:href="#F" transform="matrix(1,0,0,1,845,1134.5) translate(0 17.1)"/><use xlink:href="#n" transform="matrix(1,0,0,1,968.5410225110805,1134.5) translate(0 17.1)"/><use xlink:href="#d" transform="matrix(1,0,0,1,968.5410225110805,1134.5) translate(37.95 17.1)"/><use xlink:href="#e" transform="matrix(1,0,0,1,845,1166.5) translate(0 17.1)"/><use xlink:href="#f" transform="matrix(1,0,0,1,968.5410225110805,1166.5) translate(0 17.1)"/><use xlink:href="#g" transform="matrix(1,0,0,1,968.5410225110805,1166.5) translate(79.9 17.1)"/><use xlink:href="#G" transform="matrix(1,0,0,1,845,1198.5) translate(0 17.1)"/><use xlink:href="#f" transform="matrix(1,0,0,1,968.5410225110805,1198.5) translate(0 17.1)"/><use xlink:href="#g" transform="matrix(1,0,0,1,968.5410225110805,1198.5) translate(79.9 17.1)"/><use xlink:href="#H" transform="matrix(1,0,0,1,845,1230.5) translate(0 17.1)"/><use xlink:href="#I" transform="matrix(1,0,0,1,968.5410225110805,1230.5) translate(0 17.1)"/><use xlink:href="#J" transform="matrix(1,0,0,1,845,1262.5) translate(0 17.1)"/><use xlink:href="#I" transform="matrix(1,0,0,1,968.5410225110805,1262.5) translate(0 17.1)"/><path d="M1222.3 865a5 5 0 0 1 5-5h245.4a5 5 0 0 1 5 5v158a5 5 0 0 1-5 5h-245.4a5 5 0 0 1-5-5z" fill="#fff"/><path d="M1222.3 900v-35a5 5 0 0 1 5-5h245.4a5 5 0 0 1 5 5v35" fill="#ccc"/><path d="M1222.3 865a5 5 0 0 1 5-5h245.4a5 5 0 0 1 5 5v158a5 5 0 0 1-5 5h-245.4a5 5 0 0 1-5-5zM1222.3 900h255.4M1317.5 900v128" stroke="#333" fill="none"/><use xlink:href="#K" transform="matrix(1,0,0,1,1232.2865384229194,860) translate(0 23.6)"/><use xlink:href="#b" transform="matrix(1,0,0,1,1227.2865384229194,902.5) translate(0 17.1)"/><use xlink:href="#c" transform="matrix(1,0,0,1,1322.491477604555,902.5) translate(0 17.1)"/><use xlink:href="#d" transform="matrix(1,0,0,1,1322.491477604555,902.5) translate(39 17.1)"/><use xlink:href="#m" transform="matrix(1,0,0,1,1227.2865384229194,934.5) translate(0 17.1)"/><use xlink:href="#n" transform="matrix(1,0,0,1,1322.491477604555,934.5) translate(0 17.1)"/><use xlink:href="#d" transform="matrix(1,0,0,1,1322.491477604555,934.5) translate(37.95 17.1)"/><use xlink:href="#L" transform="matrix(1,0,0,1,1227.2865384229194,966.5) translate(0 17.1)"/><use xlink:href="#f" transform="matrix(1,0,0,1,1322.491477604555,966.5) translate(0 17.1)"/><use xlink:href="#g" transform="matrix(1,0,0,1,1322.491477604555,966.5) translate(79.9 17.1)"/><use xlink:href="#M" transform="matrix(1,0,0,1,1227.2865384229194,998.5) translate(0 17.1)"/><use xlink:href="#N" transform="matrix(1,0,0,1,1322.491477604555,998.5) translate(0 17.1)"/><path d="M260 617a5 5 0 0 1 5-5h350a5 5 0 0 1 5 5v190a5 5 0 0 1-5 5H265a5 5 0 0 1-5-5z" fill="#fff"/><path d="M260 652v-35a5 5 0 0 1 5-5h350a5 5 0 0 1 5 5v35" fill="#ccc"/><path d="M260 617a5 5 0 0 1 5-5h350a5 5 0 0 1 5 5v190a5 5 0 0 1-5 5H265a5 5 0 0 1-5-5zM260 652h360M398.73 652v160" stroke="#333" fill="none"/><use xlink:href="#O" transform="matrix(1,0,0,1,270,612) translate(0 23.6)"/><use xlink:href="#b" transform="matrix(1,0,0,1,265,654.5) translate(0 17.1)"/><use xlink:href="#c" transform="matrix(1,0,0,1,403.7297666959984,654.5) translate(0 17.1)"/><use xlink:href="#d" transform="matrix(1,0,0,1,403.7297666959984,654.5) translate(39 17.1)"/><use xlink:href="#o" transform="matrix(1,0,0,1,265,686.5) translate(0 17.1)"/><use xlink:href="#n" transform="matrix(1,0,0,1,403.7297666959984,686.5) translate(0 17.1)"/><use xlink:href="#d" transform="matrix(1,0,0,1,403.7297666959984,686.5) translate(37.95 17.1)"/><use xlink:href="#F" transform="matrix(1,0,0,1,265,718.5) translate(0 17.1)"/><use xlink:href="#n" transform="matrix(1,0,0,1,403.7297666959984,718.5) translate(0 17.1)"/><use xlink:href="#d" transform="matrix(1,0,0,1,403.7297666959984,718.5) translate(37.95 17.1)"/><use xlink:href="#p" transform="matrix(1,0,0,1,265,750.5) translate(0 17.1)"/><use xlink:href="#P" transform="matrix(1,0,0,1,403.7297666959984,750.5) translate(0 17.1)"/><use xlink:href="#Q" transform="matrix(1,0,0,1,265,782.5) translate(0 17.1)"/><use xlink:href="#I" transform="matrix(1,0,0,1,403.7297666959984,782.5) translate(0 17.1)"/><path d="M852.3 633a5 5 0 0 1 5-5h245.4a5 5 0 0 1 5 5v158a5 5 0 0 1-5 5H857.3a5 5 0 0 1-5-5z" fill="#fff"/><path d="M852.3 668v-35a5 5 0 0 1 5-5h245.4a5 5 0 0 1 5 5v35" fill="#ccc"/><path d="M852.3 633a5 5 0 0 1 5-5h245.4a5 5 0 0 1 5 5v158a5 5 0 0 1-5 5H857.3a5 5 0 0 1-5-5zM852.3 668h255.4M954.3 668v128" stroke="#333" fill="none"/><use xlink:href="#R" transform="matrix(1,0,0,1,862.2865384229193,628) translate(0 23.6)"/><use xlink:href="#b" transform="matrix(1,0,0,1,857.2865384229193,670.5) translate(0 17.1)"/><use xlink:href="#c" transform="matrix(1,0,0,1,959.302022217495,670.5) translate(0 17.1)"/><use xlink:href="#d" transform="matrix(1,0,0,1,959.302022217495,670.5) translate(39 17.1)"/><use xlink:href="#S" transform="matrix(1,0,0,1,857.2865384229193,702.5) translate(0 17.1)"/><use xlink:href="#n" transform="matrix(1,0,0,1,959.302022217495,702.5) translate(0 17.1)"/><use xlink:href="#d" transform="matrix(1,0,0,1,959.302022217495,702.5) translate(37.95 17.1)"/><use xlink:href="#e" transform="matrix(1,0,0,1,857.2865384229193,734.5) translate(0 17.1)"/><use xlink:href="#f" transform="matrix(1,0,0,1,959.302022217495,734.5) translate(0 17.1)"/><use xlink:href="#g" transform="matrix(1,0,0,1,959.302022217495,734.5) translate(79.9 17.1)"/><use xlink:href="#T" transform="matrix(1,0,0,1,857.2865384229193,766.5) translate(0 17.1)"/><use xlink:href="#f" transform="matrix(1,0,0,1,959.302022217495,766.5) translate(0 17.1)"/><use xlink:href="#g" transform="matrix(1,0,0,1,959.302022217495,766.5) translate(79.9 17.1)"/><path d="M644.57 473a5 5 0 0 1 5-5h150a5 5 0 0 1 5 5v62a5 5 0 0 1-5 5h-150a5 5 0 0 1-5-5z" fill="#fff"/><path d="M644.57 508v-35a5 5 0 0 1 5-5h150a5 5 0 0 1 5 5v35" fill="#ccc"/><path d="M644.57 473a5 5 0 0 1 5-5h150a5 5 0 0 1 5 5v62a5 5 0 0 1-5 5h-150a5 5 0 0 1-5-5zM644.57 508h160" stroke="#333" fill="none"/><use xlink:href="#j" transform="matrix(1,0,0,1,654.5730768458386,468) translate(55.55 23.6)"/><use xlink:href="#U" transform="matrix(1,0,0,1,649.5730768458386,510.5) translate(44.5 17.1)"/><path d="M894.57 473a5 5 0 0 1 5-5h150a5 5 0 0 1 5 5v62a5 5 0 0 1-5 5h-150a5 5 0 0 1-5-5z" fill="#fff"/><path d="M894.57 508v-35a5 5 0 0 1 5-5h150a5 5 0 0 1 5 5v35" fill="#ccc"/><path d="M894.57 473a5 5 0 0 1 5-5h150a5 5 0 0 1 5 5v62a5 5 0 0 1-5 5h-150a5 5 0 0 1-5-5zM894.57 508h160" stroke="#333" fill="none"/><use xlink:href="#j" transform="matrix(1,0,0,1,904.5730768458386,468) translate(55.55 23.6)"/><use xlink:href="#V" transform="matrix(1,0,0,1,899.5730768458386,510.5) translate(43.375 17.1)"/><path d="M1144.57 473a5 5 0 0 1 5-5h150a5 5 0 0 1 5 5v62a5 5 0 0 1-5 5h-150a5 5 0 0 1-5-5z" fill="#fff"/><path d="M1144.57 508v-35a5 5 0 0 1 5-5h150a5 5 0 0 1 5 5v35" fill="#ccc"/><path d="M1144.57 473a5 5 0 0 1 5-5h150a5 5 0 0 1 5 5v62a5 5 0 0 1-5 5h-150a5 5 0 0 1-5-5zM1144.57 508h160" stroke="#333" fill="none"/><use xlink:href="#j" transform="matrix(1,0,0,1,1154.5730768458386,468) translate(55.55 23.6)"/><use xlink:href="#W" transform="matrix(1,0,0,1,1149.5730768458386,510.5) translate(50.05 17.1)"/><path d="M724.57 467v-41a12 12 0 0 1 12-12h226a12 12 0 0 0 12-12v-34.63" stroke="#333" fill="none"/><path d="M725.07 467.5h-1v-.5h1z" stroke="#333" stroke-width=".05" fill="#333"/><path d="M974.57 361.48l7.64 12.9h-15.26z" stroke="#333" fill="#333"/><path d="M1224.57 467v-41a12 12 0 0 0-12-12h-226a12 12 0 0 1-12-12v-34.63" stroke="#333" fill="none"/><path d="M1225.07 467.5h-1v-.5h1z" stroke="#333" stroke-width=".05" fill="#333"/><path d="M974.57 361.48l7.64 12.9h-15.26z" stroke="#333" fill="#333"/><path d="M974.57 467v-99.63" stroke="#333" fill="none"/><path d="M975.07 467.5h-1v-.5h1z" stroke="#333" stroke-width=".05" fill="#333"/><path d="M974.57 361.48l7.64 12.9h-15.26z" stroke="#333" fill="#333"/><path d="M313.15 865a5 5 0 0 1 5-5h210a5 5 0 0 1 5 5v126a5 5 0 0 1-5 5h-210a5 5 0 0 1-5-5z" fill="#fff"/><path d="M313.15 900v-35a5 5 0 0 1 5-5h210a5 5 0 0 1 5 5v35" fill="#ccc"/><path d="M313.15 865a5 5 0 0 1 5-5h210a5 5 0 0 1 5 5v126a5 5 0 0 1-5 5h-210a5 5 0 0 1-5-5zM313.15 900h220" stroke="#333" fill="none"/><use xlink:href="#P" transform="matrix(1,0,0,1,323.1465527853429,860) translate(1.625 23.6)"/><use xlink:href="#X" transform="matrix(1,0,0,1,318.1465527853429,902.5) translate(81.525 17.1)"/><use xlink:href="#Y" transform="matrix(1,0,0,1,318.1465527853429,934.5) translate(63.55 17.1)"/><use xlink:href="#Z" transform="matrix(1,0,0,1,318.1465527853429,966.5) translate(69.025 17.1)"/><path d="M831.8 716.02H639.9" stroke="#333" fill="none"/><path d="M831.8 706.02v20M851.8 716.02h-20" stroke="#333" fill="#fff"/><path d="M620.72 706.02l20 10-20 10" stroke="#333" fill="#fff" fill-opacity="0"/><path d="M620.72 716.02h20" stroke="#333" fill="#fff"/><path d="M440 592.1V536a12 12 0 0 1 12-12h172.07" stroke="#333" fill="none"/><path d="M430 611.28l10-20 10 20" stroke="#333" fill="#fff" fill-opacity="0"/><path d="M440 611.28v-20M624.07 514v20M644.07 524h-20" stroke="#333" fill="#fff"/><path d="M980 607.5v-47" stroke="#333" fill="none"/><path d="M970 627.28l10-20 10 20" stroke="#333" fill="#fff" fill-opacity="0"/><path d="M980 627.28v-20M990 607.28h-20M970 560.5h20M980 540.5v20" stroke="#333" fill="#fff"/><path d="M980 1040.1V816.5" stroke="#333" fill="none"/><path d="M970 1059.28l10-20 10 20" stroke="#333" fill="#fff" fill-opacity="0"/><path d="M980 1059.28v-20M970 816.5h20M980 796.5v20" stroke="#333" fill="#fff"/><path d="M724.57 840.1V560.5" stroke="#333" fill="none"/><path d="M714.57 859.28l10-20 10 20" stroke="#333" fill="#fff" fill-opacity="0"/><path d="M724.57 859.28v-20M714.57 560.5h20M724.57 540.5v20" stroke="#333" fill="#fff"/><path d="M724.57 1048.5V1168a12 12 0 0 0 12 12h82.93" stroke="#333" fill="none"/><path d="M714.57 1048.5h20M724.57 1028.5v20M819.5 1170v20M839.5 1180h-20" stroke="#333" fill="#fff"/><path d="M1201.8 948.02h-18.66a12 12 0 0 0-12 12v216a12 12 0 0 1-12 12h-18.64" stroke="#333" fill="none"/><path d="M1221.56 958.02l-20-10 20-10" stroke="#333" fill="#fff" fill-opacity="0"/><path d="M1221.56 948.02h-20M1201.56 938.02v20M1140.5 1198.02v-20M1120.5 1188.02h20" stroke="#333" fill="#fff"/><path d="M1240 217a5 5 0 0 1 5-5h210a5 5 0 0 1 5 5v126a5 5 0 0 1-5 5h-210a5 5 0 0 1-5-5z" fill="#fff"/><path d="M1240 252v-35a5 5 0 0 1 5-5h210a5 5 0 0 1 5 5v35" fill="#ccc"/><path d="M1240 217a5 5 0 0 1 5-5h210a5 5 0 0 1 5 5v126a5 5 0 0 1-5 5h-210a5 5 0 0 1-5-5zM1240 252h220" stroke="#333" fill="none"/><g><use xlink:href="#k" transform="matrix(1,0,0,1,1250,212) translate(35.099999999999994 23.6)"/></g><g><use xlink:href="#U" transform="matrix(1,0,0,1,1245,254.5) translate(74 17.1)"/></g><g><use xlink:href="#V" transform="matrix(1,0,0,1,1245,286.5) translate(72.875 17.1)"/></g><g><use xlink:href="#W" transform="matrix(1,0,0,1,1245,318.5) translate(79.55 17.1)"/></g><defs><path fill="#333" d="M67 3c-93-2-31-127-26-193h32L48-50c-3 39 53 32 70 12 30-34 30-101 43-152h32L157 0h-30c1-10 6-24 4-33-14 20-29 37-64 36" id="aa"/><path fill="#333" d="M55-144c13 50 104 24 104 88C159 21 15 23 1-39l26-10c6 40 102 42 102-4-13-50-104-23-104-87 0-71 143-71 148-8l-29 4c-5-35-85-37-89 0" id="ab"/><path fill="#333" d="M111-194c62-3 86 47 72 106H45c-7 38 6 69 45 68 27-1 43-14 53-32l24 11C152-15 129 4 87 4 38 3 12-23 12-71c0-70 32-119 99-123zm44 81c14-66-71-72-95-28-4 8-8 17-11 28h106" id="ac"/><path fill="#333" d="M66-151c12-25 30-51 66-40l-6 26C45-176 58-65 38 0H6l36-190h30" id="ad"/><g id="a"><use transform="matrix(0.05,0,0,0.05,0,0)" xlink:href="#aa"/><use transform="matrix(0.05,0,0,0.05,10,0)" xlink:href="#ab"/><use transform="matrix(0.05,0,0,0.05,19,0)" xlink:href="#ac"/><use transform="matrix(0.05,0,0,0.05,29,0)" xlink:href="#ad"/></g><path fill="#333" d="M50-231l6-30h32l-6 30H50zM6 0l37-190h31L37 0H6" id="ae"/><path fill="#333" d="M133-28C103 26-5 8 13-77c13-62 24-115 90-117 29-1 46 15 56 35l19-102h32L160 0h-30zM45-64c-2 27 10 43 35 43 54-1 69-50 69-103 0-29-15-46-42-46-53-1-58 58-62 106" id="af"/><g id="b"><use transform="matrix(0.05,0,0,0.05,0,0)" xlink:href="#ae"/><use transform="matrix(0.05,0,0,0.05,3.95,0)" xlink:href="#af"/></g><path fill="#333" d="M-7 75l65-336h72l-5 23H84L28 52h41l-4 23H-7" id="ag"/><path fill="#333" d="M238-179c0 84-86 86-175 82L45 0H11l48-248c82 0 179-12 179 69zm-34 1c0-53-64-42-116-43l-19 98c63 0 135 9 135-55" id="ah"/><path fill="#333" d="M180 0L97-118 63-96 45 0H11l48-248h34L69-126c44-43 94-81 141-122h43L121-137 219 0h-39" id="ai"/><path fill="#333" d="M-30 75l5-23h40l57-290H31l4-23h72L42 75h-72" id="aj"/><g id="c"><use transform="matrix(0.05,0,0,0.05,0,0)" xlink:href="#ag"/><use transform="matrix(0.05,0,0,0.05,5,0)" xlink:href="#ah"/><use transform="matrix(0.05,0,0,0.05,17,0)" xlink:href="#ai"/><use transform="matrix(0.05,0,0,0.05,29,0)" xlink:href="#aj"/></g><g id="d"><use transform="matrix(0.05,0,0,0.05,0,0)" xlink:href="#aa"/><use transform="matrix(0.05,0,0,0.05,10,0)" xlink:href="#aa"/><use transform="matrix(0.05,0,0,0.05,20,0)" xlink:href="#ae"/><use transform="matrix(0.05,0,0,0.05,23.95,0)" xlink:href="#af"/></g><path fill="#333" d="M67-158c22-48 132-52 116 29L158 0h-32l25-140c3-38-53-32-70-12C52-117 51-52 38 0H6l36-190h30" id="ak"/><path fill="#333" d="M165-48c-4 18 1 34 23 27l-3 20c-29 8-62 0-52-35h-2C116-14 99 4 63 4 30 4 8-16 8-49c0-68 71-67 138-67 10-26 0-56-31-54-26 1-42 9-47 31l-32-5c8-67 160-71 144 15-5 28-9 54-15 81zM42-50c3 52 80 24 89-6 7-12 7-24 11-38-47 1-103-4-100 44" id="al"/><path fill="#333" d="M248-111c6-24 9-61-24-58-72 9-57 108-77 169h-31l26-142c3-37-50-30-64-10C52-115 50-51 37 0H6l36-190h30c-1 10-6 24-4 32 13-43 101-52 105 5 13-22 29-41 61-41 90 0 28 129 23 194h-31" id="am"/><g id="e"><use transform="matrix(0.05,0,0,0.05,0,0)" xlink:href="#ak"/><use transform="matrix(0.05,0,0,0.05,10,0)" xlink:href="#al"/><use transform="matrix(0.05,0,0,0.05,20,0)" xlink:href="#am"/><use transform="matrix(0.05,0,0,0.05,34.95,0)" xlink:href="#ac"/></g><path fill="#333" d="M44-68c0 29 11 47 38 47 30 0 42-19 51-41l28 9C148-21 126 4 82 4 31 4 10-29 12-85c3-77 74-140 146-93 12 8 15 23 18 40l-31 5c-1-22-13-36-36-36-52 0-65 49-65 101" id="an"/><path fill="#333" d="M67-158c15-20 31-36 64-36 94 0 33 127 27 194h-32l25-140c3-38-53-32-70-12C52-117 51-51 37 0H6l51-261h31" id="ao"/><path fill="#333" d="M51-54c-9 22 5 41 31 30L79-1C43 14 10-4 19-52l22-115H19l5-23h22l19-43h21l-9 43h35l-4 23H73" id="ap"/><g id="f"><use transform="matrix(0.05,0,0,0.05,0,0)" xlink:href="#an"/><use transform="matrix(0.05,0,0,0.05,9,0)" xlink:href="#ao"/><use transform="matrix(0.05,0,0,0.05,19,0)" xlink:href="#al"/><use transform="matrix(0.05,0,0,0.05,29,0)" xlink:href="#ad"/><use transform="matrix(0.05,0,0,0.05,34.95,0)" xlink:href="#al"/><use transform="matrix(0.05,0,0,0.05,44.95,0)" xlink:href="#an"/><use transform="matrix(0.05,0,0,0.05,53.95,0)" xlink:href="#ap"/><use transform="matrix(0.05,0,0,0.05,58.95,0)" xlink:href="#ac"/><use transform="matrix(0.05,0,0,0.05,68.95,0)" xlink:href="#ad"/></g><path fill="#333" d="M89 0H52L20-190h33L74-25l89-165h34" id="aq"/><path fill="#333" d="M198-190L69 30C53 58 25 83-20 72c4-11-1-27 19-22 33-1 43-29 59-52L20-190h32L79-34l84-156h35" id="ar"/><path fill="#333" d="M103-194c29 0 47 14 56 36 2-11 5-23 8-32h30L160-5C157 61 82 97 21 62 9 55 4 45 1 30l28-7c7 42 83 31 92-3 4-16 9-38 13-55-13 20-29 36-62 36-40 0-60-25-60-64 0-71 23-131 91-131zm4 24c-53 0-58 54-61 104-2 27 10 44 36 44 49 0 65-50 67-102 1-29-15-46-42-46" id="as"/><g id="g"><use transform="matrix(0.05,0,0,0.05,0,0)" xlink:href="#aq"/><use transform="matrix(0.05,0,0,0.05,9,0)" xlink:href="#al"/><use transform="matrix(0.05,0,0,0.05,19,0)" xlink:href="#ad"/><use transform="matrix(0.05,0,0,0.05,24.95,0)" xlink:href="#ar"/><use transform="matrix(0.05,0,0,0.05,33.95,0)" xlink:href="#ae"/><use transform="matrix(0.05,0,0,0.05,37.900000000000006,0)" xlink:href="#ak"/><use transform="matrix(0.05,0,0,0.05,47.900000000000006,0)" xlink:href="#as"/></g><path fill="#333" d="M6 0l50-261h32L37 0H6" id="at"/><g id="h"><use transform="matrix(0.05,0,0,0.05,0,0)" xlink:href="#ac"/><use transform="matrix(0.05,0,0,0.05,10,0)" xlink:href="#am"/><use transform="matrix(0.05,0,0,0.05,24.950000000000003,0)" xlink:href="#al"/><use transform="matrix(0.05,0,0,0.05,34.95,0)" xlink:href="#ae"/><use transform="matrix(0.05,0,0,0.05,38.900000000000006,0)" xlink:href="#at"/></g><path fill="#333" d="M67-162c32-53 139-36 121 50C175-51 163 2 97 4 68 4 52-11 42-31 38 6 28 39 22 75H-9l50-265h29c-1 10 0 20-3 28zm89 36c0-26-10-43-35-43-54 0-67 50-69 103-1 29 14 45 42 46 53 0 62-58 62-106" id="au"/><path fill="#333" d="M188 0h-37l-8-164L71 0H34L18-190h31l8 164 75-164h34l8 164 74-164h31" id="av"/><path fill="#333" d="M30-147c31-64 166-65 159 27C183-49 158 1 86 4 9 8 1-88 30-147zM88-20c53 0 68-48 68-100 0-31-11-51-44-50-52 1-68 46-68 97 0 32 13 53 44 53" id="aw"/><g id="i"><use transform="matrix(0.05,0,0,0.05,0,0)" xlink:href="#au"/><use transform="matrix(0.05,0,0,0.05,10,0)" xlink:href="#al"/><use transform="matrix(0.05,0,0,0.05,20,0)" xlink:href="#ab"/><use transform="matrix(0.05,0,0,0.05,29,0)" xlink:href="#ab"/><use transform="matrix(0.05,0,0,0.05,38,0)" xlink:href="#av"/><use transform="matrix(0.05,0,0,0.05,50.95,0)" xlink:href="#aw"/><use transform="matrix(0.05,0,0,0.05,60.95,0)" xlink:href="#ad"/><use transform="matrix(0.05,0,0,0.05,66.9,0)" xlink:href="#af"/></g><g id="j"><use transform="matrix(0.05,0,0,0.05,0,0)" xlink:href="#ad"/><use transform="matrix(0.05,0,0,0.05,5.95,0)" xlink:href="#aw"/><use transform="matrix(0.05,0,0,0.05,15.949999999999998,0)" xlink:href="#at"/><use transform="matrix(0.05,0,0,0.05,19.9,0)" xlink:href="#ac"/></g><path fill="#333" d="M-28 44V31h207v13H-28" id="ax"/><g id="k"><use transform="matrix(0.05,0,0,0.05,0,0)" xlink:href="#aa"/><use transform="matrix(0.05,0,0,0.05,10,0)" xlink:href="#ab"/><use transform="matrix(0.05,0,0,0.05,19,0)" xlink:href="#ac"/><use transform="matrix(0.05,0,0,0.05,29,0)" xlink:href="#ad"/><use transform="matrix(0.05,0,0,0.05,34.95,0)" xlink:href="#ax"/><use transform="matrix(0.05,0,0,0.05,44.95,0)" xlink:href="#ad"/><use transform="matrix(0.05,0,0,0.05,50.900000000000006,0)" xlink:href="#aw"/><use transform="matrix(0.05,0,0,0.05,60.900000000000006,0)" xlink:href="#at"/><use transform="matrix(0.05,0,0,0.05,64.85000000000001,0)" xlink:href="#ac"/><use transform="matrix(0.05,0,0,0.05,74.85000000000001,0)" xlink:href="#ax"/><use transform="matrix(0.05,0,0,0.05,84.85000000000001,0)" xlink:href="#ac"/><use transform="matrix(0.05,0,0,0.05,94.85000000000001,0)" xlink:href="#ak"/><use transform="matrix(0.05,0,0,0.05,104.85000000000001,0)" xlink:href="#aa"/><use transform="matrix(0.05,0,0,0.05,114.85000000000001,0)" xlink:href="#am"/></g><path fill="#333" d="M127 0L80-88 50-66 37 0H6l51-261h31L57-100l99-90h39l-93 82L161 0h-34" id="ay"/><g id="l"><use transform="matrix(0.05,0,0,0.05,0,0)" xlink:href="#ap"/><use transform="matrix(0.05,0,0,0.05,5,0)" xlink:href="#al"/><use transform="matrix(0.05,0,0,0.05,15,0)" xlink:href="#ab"/><use transform="matrix(0.05,0,0,0.05,24,0)" xlink:href="#ay"/></g><path fill="#333" d="M133-28C103 26-5 8 13-77c13-62 24-115 90-117 29-1 46 15 56 35 2-12 6-24 8-34h31L144 75h-31zM45-64c-2 27 10 43 35 43 54-1 69-50 69-103 0-29-15-46-42-46-53-1-58 58-62 106" id="az"/><path fill="#333" d="M-8 0l5-24 140-142H31l5-24h145l-5 24L36-24h119l-5 24H-8" id="aA"/><path fill="#333" d="M14 0l48-248h34L48 0H14" id="aB"/><g id="m"><use transform="matrix(0.05,0,0,0.05,0,0)" xlink:href="#az"/><use transform="matrix(0.05,0,0,0.05,10,0)" xlink:href="#aa"/><use transform="matrix(0.05,0,0,0.05,20,0)" xlink:href="#ae"/><use transform="matrix(0.05,0,0,0.05,23.95,0)" xlink:href="#aA"/><use transform="matrix(0.05,0,0,0.05,32.95,0)" xlink:href="#aB"/><use transform="matrix(0.05,0,0,0.05,37.95,0)" xlink:href="#af"/></g><path fill="#333" d="M87-220l-18 92h140l-5 28H64L45 0H11l48-248h178l-5 28H87" id="aC"/><g id="n"><use transform="matrix(0.05,0,0,0.05,0,0)" xlink:href="#ag"/><use transform="matrix(0.05,0,0,0.05,5,0)" xlink:href="#aC"/><use transform="matrix(0.05,0,0,0.05,15.950000000000001,0)" xlink:href="#ai"/><use transform="matrix(0.05,0,0,0.05,27.950000000000003,0)" xlink:href="#aj"/></g><g id="o"><use transform="matrix(0.05,0,0,0.05,0,0)" xlink:href="#ab"/><use transform="matrix(0.05,0,0,0.05,9,0)" xlink:href="#ap"/><use transform="matrix(0.05,0,0,0.05,14,0)" xlink:href="#aa"/><use transform="matrix(0.05,0,0,0.05,24,0)" xlink:href="#af"/><use transform="matrix(0.05,0,0,0.05,34,0)" xlink:href="#ac"/><use transform="matrix(0.05,0,0,0.05,44,0)" xlink:href="#ak"/><use transform="matrix(0.05,0,0,0.05,54,0)" xlink:href="#ap"/><use transform="matrix(0.05,0,0,0.05,59,0)" xlink:href="#aB"/><use transform="matrix(0.05,0,0,0.05,64,0)" xlink:href="#af"/></g><g id="p"><use transform="matrix(0.05,0,0,0.05,0,0)" xlink:href="#ab"/><use transform="matrix(0.05,0,0,0.05,9,0)" xlink:href="#ap"/><use transform="matrix(0.05,0,0,0.05,14,0)" xlink:href="#al"/><use transform="matrix(0.05,0,0,0.05,24,0)" xlink:href="#ap"/><use transform="matrix(0.05,0,0,0.05,29,0)" xlink:href="#aa"/><use transform="matrix(0.05,0,0,0.05,39,0)" xlink:href="#ab"/></g><path fill="#333" d="M68-162c25-46 127-43 121 31C183-60 169 1 98 4 69 5 53-11 43-31L36 0H5l52-261h31zm88 36c2-27-9-43-34-43-55 0-70 51-70 103 0 29 15 45 43 46 52 0 58-58 61-106" id="aD"/><g id="q"><use transform="matrix(0.05,0,0,0.05,0,0)" xlink:href="#aD"/><use transform="matrix(0.05,0,0,0.05,10,0)" xlink:href="#aw"/><use transform="matrix(0.05,0,0,0.05,20,0)" xlink:href="#aw"/><use transform="matrix(0.05,0,0,0.05,30,0)" xlink:href="#at"/><use transform="matrix(0.05,0,0,0.05,33.95,0)" xlink:href="#ac"/><use transform="matrix(0.05,0,0,0.05,43.95,0)" xlink:href="#al"/><use transform="matrix(0.05,0,0,0.05,53.95,0)" xlink:href="#ak"/></g><path fill="#a9afb8" d="M24-248c120-7 223 5 221 122C244-46 201 0 124 0H24v-248zM76-40c74 7 117-18 117-86 0-67-45-88-117-82v168" id="aE"/><path fill="#a9afb8" d="M25-224v-37h50v37H25zM25 0v-190h50V0H25" id="aF"/><path fill="#a9afb8" d="M133-34C117-15 103 5 69 4 32 3 11-16 11-54c-1-60 55-63 116-61 1-26-3-47-28-47-18 1-26 9-28 27l-52-2c7-38 36-58 82-57s74 22 75 68l1 82c-1 14 12 18 25 15v27c-30 8-71 5-69-32zm-48 3c29 0 43-24 42-57-32 0-66-3-65 30 0 17 8 27 23 27" id="aG"/><path fill="#a9afb8" d="M195-6C206 82 75 100 31 46c-4-6-6-13-8-21l49-6c3 16 16 24 34 25 40 0 42-37 40-79-11 22-30 35-61 35-53 0-70-43-70-97 0-56 18-96 73-97 30 0 46 14 59 34l2-30h47zm-90-29c32 0 41-27 41-63 0-35-9-62-40-62-32 0-39 29-40 63 0 36 9 62 39 62" id="aH"/><path fill="#a9afb8" d="M135-150c-39-12-60 13-60 57V0H25l-1-190h47c2 13-1 29 3 40 6-28 27-53 61-41v41" id="aI"/><path fill="#a9afb8" d="M220-157c-53 9-28 100-34 157h-49v-107c1-27-5-49-29-50C55-147 81-57 75 0H25l-1-190h47c2 12-1 28 3 38 10-53 101-56 108 0 13-22 24-43 59-42 82 1 51 116 57 194h-49v-107c-1-25-5-48-29-50" id="aJ"/><g id="r"><use transform="matrix(0.0728395061728395,0,0,0.0728395061728395,0,0)" xlink:href="#aE"/><use transform="matrix(0.0728395061728395,0,0,0.0728395061728395,18.86543209876543,0)" xlink:href="#aF"/><use transform="matrix(0.0728395061728395,0,0,0.0728395061728395,26.14938271604938,0)" xlink:href="#aG"/><use transform="matrix(0.0728395061728395,0,0,0.0728395061728395,40.717283950617286,0)" xlink:href="#aH"/><use transform="matrix(0.0728395061728395,0,0,0.0728395061728395,56.66913580246913,0)" xlink:href="#aI"/><use transform="matrix(0.0728395061728395,0,0,0.0728395061728395,66.86666666666666,0)" xlink:href="#aG"/><use transform="matrix(0.0728395061728395,0,0,0.0728395061728395,81.43456790123457,0)" xlink:href="#aJ"/><use transform="matrix(0.0728395061728395,0,0,0.0728395061728395,104.7432098765432,0)" xlink:href="#aG"/></g><path fill="#a9afb8" d="M24 0v-248h195v40H76v63h132v40H76v65h150V0H24" id="aK"/><path fill="#a9afb8" d="M240-174c0 40-23 61-54 70L253 0h-59l-57-94H76V0H24v-248c93 4 217-23 216 74zM76-134c48-2 112 12 112-38 0-48-66-32-112-35v73" id="aL"/><g id="s"><use transform="matrix(0.0728395061728395,0,0,0.0728395061728395,0,0)" xlink:href="#aK"/><use transform="matrix(0.0728395061728395,0,0,0.0728395061728395,17.48148148148148,0)" xlink:href="#aL"/></g><path fill="#a9afb8" d="M88-194c31-1 46 15 58 34l-1-101h50l1 261h-48c-2-10 0-23-3-31C134-8 116 4 84 4 32 4 16-41 15-95c0-56 19-97 73-99zm17 164c33 0 40-30 41-66 1-37-9-64-41-64s-38 30-39 65c0 43 13 65 39 65" id="aM"/><path fill="#a9afb8" d="M185-48c-13 30-37 53-82 52C43 2 14-33 14-96s30-98 90-98c62 0 83 45 84 108H66c0 31 8 55 39 56 18 0 30-7 34-22zm-45-69c5-46-57-63-70-21-2 6-4 13-4 21h74" id="aN"/><g id="t"><use transform="matrix(0.0728395061728395,0,0,0.0728395061728395,0,0)" xlink:href="#aM"/><use transform="matrix(0.0728395061728395,0,0,0.0728395061728395,15.95185185185185,0)" xlink:href="#aN"/></g><path fill="#a9afb8" d="M135-194c52 0 70 43 70 98 0 56-19 99-73 100-30 1-46-15-58-35L72 0H24l1-261h50v104c11-23 29-37 60-37zM114-30c31 0 40-27 40-66 0-37-7-63-39-63s-41 28-41 65c0 36 8 64 40 64" id="aO"/><path fill="#a9afb8" d="M135-194c87-1 58 113 63 194h-50c-7-57 23-157-34-157-59 0-34 97-39 157H25l-1-190h47c2 12-1 28 3 38 12-26 28-41 61-42" id="aP"/><path fill="#a9afb8" d="M190-63c-7 42-38 67-86 67-59 0-84-38-90-98-12-110 154-137 174-36l-49 2c-2-19-15-32-35-32-30 0-35 28-38 64-6 74 65 87 74 30" id="aQ"/><path fill="#a9afb8" d="M110-194c64 0 96 36 96 99 0 64-35 99-97 99-61 0-95-36-95-99 0-62 34-99 96-99zm-1 164c35 0 45-28 45-65 0-40-10-65-43-65-34 0-45 26-45 65 0 36 10 65 43 65" id="aR"/><g id="u"><use transform="matrix(0.0728395061728395,0,0,0.0728395061728395,0,0)" xlink:href="#aO"/><use transform="matrix(0.0728395061728395,0,0,0.0728395061728395,15.95185185185185,0)" xlink:href="#aG"/><use transform="matrix(0.0728395061728395,0,0,0.0728395061728395,30.51975308641975,0)" xlink:href="#aP"/><use transform="matrix(0.0728395061728395,0,0,0.0728395061728395,46.471604938271604,0)" xlink:href="#aQ"/><use transform="matrix(0.0728395061728395,0,0,0.0728395061728395,61.0395061728395,0)" xlink:href="#aR"/></g><path fill="#a9afb8" d="M137-138c1-29-70-34-71-4 15 46 118 7 119 86 1 83-164 76-172 9l43-7c4 19 20 25 44 25 33 8 57-30 24-41C81-84 22-81 20-136c-2-80 154-74 161-7" id="aS"/><path fill="#a9afb8" d="M35-132v-50h50v50H35zM35 0v-49h50V0H35" id="aT"/><g id="v"><use transform="matrix(0.0728395061728395,0,0,0.0728395061728395,0,0)" xlink:href="#aM"/><use transform="matrix(0.0728395061728395,0,0,0.0728395061728395,15.95185185185185,0)" xlink:href="#aG"/><use transform="matrix(0.0728395061728395,0,0,0.0728395061728395,30.51975308641975,0)" xlink:href="#aM"/><use transform="matrix(0.0728395061728395,0,0,0.0728395061728395,46.471604938271604,0)" xlink:href="#aR"/><use transform="matrix(0.0728395061728395,0,0,0.0728395061728395,62.42345679012345,0)" xlink:href="#aS"/><use transform="matrix(0.0728395061728395,0,0,0.0728395061728395,76.99135802469135,0)" xlink:href="#aT"/></g><path fill="#a9afb8" d="M169-182c-1-43-94-46-97-3 18 66 151 10 154 114 3 95-165 93-204 36-6-8-10-19-12-30l50-8c3 46 112 56 116 5-17-69-150-10-154-114-4-87 153-88 188-35 5 8 8 18 10 28" id="aU"/><path fill="#a9afb8" d="M115-3C79 11 28 4 28-45v-112H4v-33h27l15-45h31v45h36v33H77v99c-1 23 16 31 38 25v30" id="aV"/><g id="w"><use transform="matrix(0.0728395061728395,0,0,0.0728395061728395,0,0)" xlink:href="#aU"/><use transform="matrix(0.0728395061728395,0,0,0.0728395061728395,17.48148148148148,0)" xlink:href="#aF"/><use transform="matrix(0.0728395061728395,0,0,0.0728395061728395,24.76543209876543,0)" xlink:href="#aS"/><use transform="matrix(0.0728395061728395,0,0,0.0728395061728395,39.333333333333336,0)" xlink:href="#aV"/><use transform="matrix(0.0728395061728395,0,0,0.0728395061728395,48.00123456790123,0)" xlink:href="#aN"/><use transform="matrix(0.0728395061728395,0,0,0.0728395061728395,62.56913580246913,0)" xlink:href="#aJ"/><use transform="matrix(0.0728395061728395,0,0,0.0728395061728395,85.87777777777777,0)" xlink:href="#aG"/></g><path fill="#a9afb8" d="M25 0v-261h50V0H25" id="aW"/><g id="x"><use transform="matrix(0.0728395061728395,0,0,0.0728395061728395,0,0)" xlink:href="#aK"/><use transform="matrix(0.0728395061728395,0,0,0.0728395061728395,17.48148148148148,0)" xlink:href="#aS"/><use transform="matrix(0.0728395061728395,0,0,0.0728395061728395,32.04938271604938,0)" xlink:href="#aQ"/><use transform="matrix(0.0728395061728395,0,0,0.0728395061728395,46.61728395061728,0)" xlink:href="#aR"/><use transform="matrix(0.0728395061728395,0,0,0.0728395061728395,62.56913580246913,0)" xlink:href="#aW"/><use transform="matrix(0.0728395061728395,0,0,0.0728395061728395,69.85308641975308,0)" xlink:href="#aG"/><use transform="matrix(0.0728395061728395,0,0,0.0728395061728395,84.42098765432098,0)" xlink:href="#aI"/></g><path fill="#a9afb8" d="M205 0l-28-72H64L36 0H1l101-248h38L239 0h-34zm-38-99l-47-123c-12 45-31 82-46 123h93" id="aX"/><path fill="#a9afb8" d="M24 0v-261h32V0H24" id="aY"/><path fill="#a9afb8" d="M100-194c63 0 86 42 84 106H49c0 40 14 67 53 68 26 1 43-12 49-29l28 8c-11 28-37 45-77 45C44 4 14-33 15-96c1-61 26-98 85-98zm52 81c6-60-76-77-97-28-3 7-6 17-6 28h103" id="aZ"/><path fill="#a9afb8" d="M141 0L90-78 38 0H4l68-98-65-92h35l48 74 47-74h35l-64 92 68 98h-35" id="ba"/><path fill="#a9afb8" d="M141-36C126-15 110 5 73 4 37 3 15-17 15-53c-1-64 63-63 125-63 3-35-9-54-41-54-24 1-41 7-42 31l-33-3c5-37 33-52 76-52 45 0 72 20 72 64v82c-1 20 7 32 28 27v20c-31 9-61-2-59-35zM48-53c0 20 12 33 32 33 41-3 63-29 60-74-43 2-92-5-92 41" id="bb"/><path fill="#a9afb8" d="M117-194c89-4 53 116 60 194h-32v-121c0-31-8-49-39-48C34-167 62-67 57 0H25l-1-190h30c1 10-1 24 2 32 11-22 29-35 61-36" id="bc"/><path fill="#a9afb8" d="M85-194c31 0 48 13 60 33l-1-100h32l1 261h-30c-2-10 0-23-3-31C134-8 116 4 85 4 32 4 16-35 15-94c0-66 23-100 70-100zm9 24c-40 0-46 34-46 75 0 40 6 74 45 74 42 0 51-32 51-76 0-42-9-74-50-73" id="bd"/><path fill="#a9afb8" d="M114-163C36-179 61-72 57 0H25l-1-190h30c1 12-1 29 2 39 6-27 23-49 58-41v29" id="be"/><g id="y"><use transform="matrix(0.04248971193415638,0,0,0.04248971193415638,0,0)" xlink:href="#aX"/><use transform="matrix(0.04248971193415638,0,0,0.04248971193415638,10.19753086419753,0)" xlink:href="#aY"/><use transform="matrix(0.04248971193415638,0,0,0.04248971193415638,13.554218106995881,0)" xlink:href="#aZ"/><use transform="matrix(0.04248971193415638,0,0,0.04248971193415638,22.05216049382716,0)" xlink:href="#ba"/><use transform="matrix(0.04248971193415638,0,0,0.04248971193415638,29.700308641975308,0)" xlink:href="#bb"/><use transform="matrix(0.04248971193415638,0,0,0.04248971193415638,38.19825102880658,0)" xlink:href="#bc"/><use transform="matrix(0.04248971193415638,0,0,0.04248971193415638,46.69619341563786,0)" xlink:href="#bd"/><use transform="matrix(0.04248971193415638,0,0,0.04248971193415638,55.194135802469134,0)" xlink:href="#be"/><use transform="matrix(0.04248971193415638,0,0,0.04248971193415638,60.25041152263374,0)" xlink:href="#aZ"/></g><path fill="#a9afb8" d="M143 4C61 4 22-44 18-125c-5-107 100-154 193-111 17 8 29 25 37 43l-32 9c-13-25-37-40-76-40-61 0-88 39-88 99 0 61 29 100 91 101 35 0 62-11 79-27v-45h-74v-28h105v86C228-13 192 4 143 4" id="bf"/><path fill="#a9afb8" d="M96-169c-40 0-48 33-48 73s9 75 48 75c24 0 41-14 43-38l32 2c-6 37-31 61-74 61-59 0-76-41-82-99-10-93 101-131 147-64 4 7 5 14 7 22l-32 3c-4-21-16-35-41-35" id="bg"/><path fill="#a9afb8" d="M24-231v-30h32v30H24zM24 0v-190h32V0H24" id="bh"/><g id="z"><use transform="matrix(0.04248971193415638,0,0,0.04248971193415638,0,0)" xlink:href="#bf"/><use transform="matrix(0.04248971193415638,0,0,0.04248971193415638,11.897119341563785,0)" xlink:href="#bb"/><use transform="matrix(0.04248971193415638,0,0,0.04248971193415638,20.39506172839506,0)" xlink:href="#be"/><use transform="matrix(0.04248971193415638,0,0,0.04248971193415638,25.45133744855967,0)" xlink:href="#bg"/><use transform="matrix(0.04248971193415638,0,0,0.04248971193415638,33.099485596707815,0)" xlink:href="#bh"/><use transform="matrix(0.04248971193415638,0,0,0.04248971193415638,36.456172839506166,0)" xlink:href="#bb"/></g><path fill="#a9afb8" d="M32 76v-337h29V76H32" id="bi"/><use transform="matrix(0.04248971193415638,0,0,0.04248971193415638,0,0)" xlink:href="#bi" id="A"/><path fill="#a9afb8" d="M190 0L58-211 59 0H30v-248h39L202-35l-2-213h31V0h-41" id="bj"/><path fill="#a9afb8" d="M100-194c62-1 85 37 85 99 1 63-27 99-86 99S16-35 15-95c0-66 28-99 85-99zM99-20c44 1 53-31 53-75 0-43-8-75-51-75s-53 32-53 75 10 74 51 75" id="bk"/><path fill="#a9afb8" d="M108 0H70L1-190h34L89-25l56-165h34" id="bl"/><path fill="#a9afb8" d="M210-169c-67 3-38 105-44 169h-31v-121c0-29-5-50-35-48C34-165 62-65 56 0H25l-1-190h30c1 10-1 24 2 32 10-44 99-50 107 0 11-21 27-35 58-36 85-2 47 119 55 194h-31v-121c0-29-5-49-35-48" id="bm"/><path fill="#a9afb8" d="M115-194c53 0 69 39 70 98 0 66-23 100-70 100C84 3 66-7 56-30L54 0H23l1-261h32v101c10-23 28-34 59-34zm-8 174c40 0 45-34 45-75 0-40-5-75-45-74-42 0-51 32-51 76 0 43 10 73 51 73" id="bn"/><g id="B"><use transform="matrix(0.04248971193415638,0,0,0.04248971193415638,0,0)" xlink:href="#bj"/><use transform="matrix(0.04248971193415638,0,0,0.04248971193415638,11.004835390946502,0)" xlink:href="#bk"/><use transform="matrix(0.04248971193415638,0,0,0.04248971193415638,19.502777777777776,0)" xlink:href="#bl"/><use transform="matrix(0.04248971193415638,0,0,0.04248971193415638,27.150925925925925,0)" xlink:href="#aZ"/><use transform="matrix(0.04248971193415638,0,0,0.04248971193415638,35.6488683127572,0)" xlink:href="#bm"/><use transform="matrix(0.04248971193415638,0,0,0.04248971193415638,48.35329218106995,0)" xlink:href="#bn"/><use transform="matrix(0.04248971193415638,0,0,0.04248971193415638,56.851234567901244,0)" xlink:href="#aZ"/><use transform="matrix(0.04248971193415638,0,0,0.04248971193415638,65.34917695473251,0)" xlink:href="#be"/></g><path fill="#a9afb8" d="M101-251c82-7 93 87 43 132L82-64C71-53 59-42 53-27h129V0H18c2-99 128-94 128-182 0-28-16-43-45-43s-46 15-49 41l-32-3c6-41 34-60 81-64" id="bo"/><path fill="#a9afb8" d="M99-251c64 0 84 50 84 122C183-37 130 33 47-8c-14-7-20-23-25-40l30-5c6 39 69 39 84 7 9-19 16-44 16-74-10 22-31 35-62 35-49 0-73-33-73-83 0-54 28-83 82-83zm-1 141c31-1 51-18 51-49 0-36-14-67-51-67-34 0-49 23-49 58 0 34 15 58 49 58" id="bp"/><path fill="#a9afb8" d="M68-38c1 34 0 65-14 84H32c9-13 17-26 17-46H33v-38h35" id="bq"/><g id="C"><use transform="matrix(0.04248971193415638,0,0,0.04248971193415638,0,0)" xlink:href="#bo"/><use transform="matrix(0.04248971193415638,0,0,0.04248971193415638,8.497942386831275,0)" xlink:href="#bp"/><use transform="matrix(0.04248971193415638,0,0,0.04248971193415638,16.99588477366255,0)" xlink:href="#bq"/></g><path fill="#a9afb8" d="M101-251c68 0 85 55 85 127S166 4 100 4C33 4 14-52 14-124c0-73 17-127 87-127zm-1 229c47 0 54-49 54-102s-4-102-53-102c-51 0-55 48-55 102 0 53 5 102 54 102" id="br"/><path fill="#a9afb8" d="M126-127c33 6 58 20 58 59 0 88-139 92-164 29-3-8-5-16-6-25l32-3c6 27 21 44 54 44 32 0 52-15 52-46 0-38-36-46-79-43v-28c39 1 72-4 72-42 0-27-17-43-46-43-28 0-47 15-49 41l-32-3c6-42 35-63 81-64 48-1 79 21 79 65 0 36-21 52-52 59" id="bs"/><g id="D"><use transform="matrix(0.04248971193415638,0,0,0.04248971193415638,0,0)" xlink:href="#bo"/><use transform="matrix(0.04248971193415638,0,0,0.04248971193415638,8.497942386831275,0)" xlink:href="#br"/><use transform="matrix(0.04248971193415638,0,0,0.04248971193415638,16.99588477366255,0)" xlink:href="#bo"/><use transform="matrix(0.04248971193415638,0,0,0.04248971193415638,25.493827160493822,0)" xlink:href="#bs"/></g><g id="E"><use transform="matrix(0.05,0,0,0.05,0,0)" xlink:href="#az"/><use transform="matrix(0.05,0,0,0.05,10,0)" xlink:href="#aa"/><use transform="matrix(0.05,0,0,0.05,20,0)" xlink:href="#ae"/><use transform="matrix(0.05,0,0,0.05,23.95,0)" xlink:href="#aA"/></g><g id="F"><use transform="matrix(0.05,0,0,0.05,0,0)" xlink:href="#an"/><use transform="matrix(0.05,0,0,0.05,9,0)" xlink:href="#aw"/><use transform="matrix(0.05,0,0,0.05,19,0)" xlink:href="#aa"/><use transform="matrix(0.05,0,0,0.05,29,0)" xlink:href="#ad"/><use transform="matrix(0.05,0,0,0.05,34.95,0)" xlink:href="#ab"/><use transform="matrix(0.05,0,0,0.05,43.95,0)" xlink:href="#ac"/><use transform="matrix(0.05,0,0,0.05,53.95,0)" xlink:href="#aB"/><use transform="matrix(0.05,0,0,0.05,58.95,0)" xlink:href="#af"/></g><g id="G"><use transform="matrix(0.05,0,0,0.05,0,0)" xlink:href="#af"/><use transform="matrix(0.05,0,0,0.05,10,0)" xlink:href="#ac"/><use transform="matrix(0.05,0,0,0.05,20,0)" xlink:href="#ab"/><use transform="matrix(0.05,0,0,0.05,29,0)" xlink:href="#an"/><use transform="matrix(0.05,0,0,0.05,38,0)" xlink:href="#ad"/><use transform="matrix(0.05,0,0,0.05,43.95,0)" xlink:href="#ae"/><use transform="matrix(0.05,0,0,0.05,47.900000000000006,0)" xlink:href="#au"/><use transform="matrix(0.05,0,0,0.05,57.900000000000006,0)" xlink:href="#ap"/><use transform="matrix(0.05,0,0,0.05,62.900000000000006,0)" xlink:href="#ae"/><use transform="matrix(0.05,0,0,0.05,66.85000000000001,0)" xlink:href="#aw"/><use transform="matrix(0.05,0,0,0.05,76.85000000000001,0)" xlink:href="#ak"/></g><path fill="#333" d="M187 0l-14-72H61L19 0h-37l149-248h38L221 0h-34zm-19-99l-22-123L76-99h92" id="bt"/><g id="H"><use transform="matrix(0.05,0,0,0.05,0,0)" xlink:href="#an"/><use transform="matrix(0.05,0,0,0.05,9,0)" xlink:href="#ad"/><use transform="matrix(0.05,0,0,0.05,14.949999999999998,0)" xlink:href="#ac"/><use transform="matrix(0.05,0,0,0.05,24.95,0)" xlink:href="#al"/><use transform="matrix(0.05,0,0,0.05,34.95,0)" xlink:href="#ap"/><use transform="matrix(0.05,0,0,0.05,39.95,0)" xlink:href="#ac"/><use transform="matrix(0.05,0,0,0.05,49.95,0)" xlink:href="#bt"/><use transform="matrix(0.05,0,0,0.05,61.95,0)" xlink:href="#ap"/></g><g id="I"><use transform="matrix(0.05,0,0,0.05,0,0)" xlink:href="#ap"/><use transform="matrix(0.05,0,0,0.05,5,0)" xlink:href="#ae"/><use transform="matrix(0.05,0,0,0.05,8.95,0)" xlink:href="#am"/><use transform="matrix(0.05,0,0,0.05,23.9,0)" xlink:href="#ac"/><use transform="matrix(0.05,0,0,0.05,33.9,0)" xlink:href="#ab"/><use transform="matrix(0.05,0,0,0.05,42.9,0)" xlink:href="#ap"/><use transform="matrix(0.05,0,0,0.05,47.9,0)" xlink:href="#al"/><use transform="matrix(0.05,0,0,0.05,57.900000000000006,0)" xlink:href="#am"/><use transform="matrix(0.05,0,0,0.05,72.85,0)" xlink:href="#au"/></g><path fill="#333" d="M248-139C247-14 144 9 11 0l48-248c105-6 190 8 189 109zm-34 0c1-70-52-87-126-82L50-27c98 7 163-21 164-112" id="bu"/><g id="J"><use transform="matrix(0.05,0,0,0.05,0,0)" xlink:href="#af"/><use transform="matrix(0.05,0,0,0.05,10,0)" xlink:href="#ac"/><use transform="matrix(0.05,0,0,0.05,20,0)" xlink:href="#al"/><use transform="matrix(0.05,0,0,0.05,30,0)" xlink:href="#af"/><use transform="matrix(0.05,0,0,0.05,40,0)" xlink:href="#at"/><use transform="matrix(0.05,0,0,0.05,43.95,0)" xlink:href="#ae"/><use transform="matrix(0.05,0,0,0.05,47.900000000000006,0)" xlink:href="#ak"/><use transform="matrix(0.05,0,0,0.05,57.900000000000006,0)" xlink:href="#ac"/><use transform="matrix(0.05,0,0,0.05,67.9,0)" xlink:href="#bu"/><use transform="matrix(0.05,0,0,0.05,80.85000000000001,0)" xlink:href="#al"/><use transform="matrix(0.05,0,0,0.05,90.85000000000001,0)" xlink:href="#ap"/><use transform="matrix(0.05,0,0,0.05,95.85000000000001,0)" xlink:href="#ac"/></g><g id="K"><use transform="matrix(0.05,0,0,0.05,0,0)" xlink:href="#az"/><use transform="matrix(0.05,0,0,0.05,10,0)" xlink:href="#aa"/><use transform="matrix(0.05,0,0,0.05,20,0)" xlink:href="#ac"/><use transform="matrix(0.05,0,0,0.05,30,0)" xlink:href="#ab"/><use transform="matrix(0.05,0,0,0.05,39,0)" xlink:href="#ap"/><use transform="matrix(0.05,0,0,0.05,44,0)" xlink:href="#ae"/><use transform="matrix(0.05,0,0,0.05,47.95,0)" xlink:href="#aw"/><use transform="matrix(0.05,0,0,0.05,57.95,0)" xlink:href="#ak"/></g><g id="L"><use transform="matrix(0.05,0,0,0.05,0,0)" xlink:href="#ab"/><use transform="matrix(0.05,0,0,0.05,9,0)" xlink:href="#ap"/><use transform="matrix(0.05,0,0,0.05,14,0)" xlink:href="#al"/><use transform="matrix(0.05,0,0,0.05,24,0)" xlink:href="#ap"/><use transform="matrix(0.05,0,0,0.05,29,0)" xlink:href="#ac"/><use transform="matrix(0.05,0,0,0.05,39,0)" xlink:href="#am"/><use transform="matrix(0.05,0,0,0.05,53.95,0)" xlink:href="#ac"/><use transform="matrix(0.05,0,0,0.05,63.95,0)" xlink:href="#ak"/><use transform="matrix(0.05,0,0,0.05,73.95,0)" xlink:href="#ap"/></g><g id="M"><use transform="matrix(0.05,0,0,0.05,0,0)" xlink:href="#aw"/><use transform="matrix(0.05,0,0,0.05,10,0)" xlink:href="#au"/><use transform="matrix(0.05,0,0,0.05,20,0)" xlink:href="#ap"/><use transform="matrix(0.05,0,0,0.05,25,0)" xlink:href="#ae"/><use transform="matrix(0.05,0,0,0.05,28.950000000000003,0)" xlink:href="#aw"/><use transform="matrix(0.05,0,0,0.05,38.95,0)" xlink:href="#ak"/><use transform="matrix(0.05,0,0,0.05,48.95,0)" xlink:href="#ab"/></g><path fill="#333" d="M51-231l6-30h31l-6 30H51zM33 24C28 60 2 84-40 72c3-12-1-29 18-22C-5 49-1 37 2 19l41-209h32" id="bv"/><g id="N"><use transform="matrix(0.05,0,0,0.05,0,0)" xlink:href="#bv"/><use transform="matrix(0.05,0,0,0.05,3.95,0)" xlink:href="#ab"/><use transform="matrix(0.05,0,0,0.05,12.949999999999998,0)" xlink:href="#aw"/><use transform="matrix(0.05,0,0,0.05,22.95,0)" xlink:href="#ak"/><use transform="matrix(0.05,0,0,0.05,32.95,0)" xlink:href="#aD"/></g><g id="O"><use transform="matrix(0.05,0,0,0.05,0,0)" xlink:href="#ac"/><use transform="matrix(0.05,0,0,0.05,10,0)" xlink:href="#ak"/><use transform="matrix(0.05,0,0,0.05,20,0)" xlink:href="#ad"/><use transform="matrix(0.05,0,0,0.05,25.950000000000003,0)" xlink:href="#aw"/><use transform="matrix(0.05,0,0,0.05,35.95,0)" xlink:href="#at"/><use transform="matrix(0.05,0,0,0.05,39.900000000000006,0)" xlink:href="#at"/><use transform="matrix(0.05,0,0,0.05,43.85000000000001,0)" xlink:href="#am"/><use transform="matrix(0.05,0,0,0.05,58.80000000000001,0)" xlink:href="#ac"/><use transform="matrix(0.05,0,0,0.05,68.80000000000001,0)" xlink:href="#ak"/><use transform="matrix(0.05,0,0,0.05,78.80000000000001,0)" xlink:href="#ap"/></g><g id="P"><use transform="matrix(0.05,0,0,0.05,0,0)" xlink:href="#ac"/><use transform="matrix(0.05,0,0,0.05,10,0)" xlink:href="#ak"/><use transform="matrix(0.05,0,0,0.05,20,0)" xlink:href="#ad"/><use transform="matrix(0.05,0,0,0.05,25.950000000000003,0)" xlink:href="#aw"/><use transform="matrix(0.05,0,0,0.05,35.95,0)" xlink:href="#at"/><use transform="matrix(0.05,0,0,0.05,39.900000000000006,0)" xlink:href="#at"/><use transform="matrix(0.05,0,0,0.05,43.85000000000001,0)" xlink:href="#am"/><use transform="matrix(0.05,0,0,0.05,58.80000000000001,0)" xlink:href="#ac"/><use transform="matrix(0.05,0,0,0.05,68.80000000000001,0)" xlink:href="#ak"/><use transform="matrix(0.05,0,0,0.05,78.80000000000001,0)" xlink:href="#ap"/><use transform="matrix(0.05,0,0,0.05,83.80000000000001,0)" xlink:href="#ax"/><use transform="matrix(0.05,0,0,0.05,93.80000000000001,0)" xlink:href="#ab"/><use transform="matrix(0.05,0,0,0.05,102.80000000000001,0)" xlink:href="#ap"/><use transform="matrix(0.05,0,0,0.05,107.80000000000001,0)" xlink:href="#al"/><use transform="matrix(0.05,0,0,0.05,117.80000000000001,0)" xlink:href="#ap"/><use transform="matrix(0.05,0,0,0.05,122.80000000000001,0)" xlink:href="#aa"/><use transform="matrix(0.05,0,0,0.05,132.8,0)" xlink:href="#ab"/><use transform="matrix(0.05,0,0,0.05,141.8,0)" xlink:href="#ax"/><use transform="matrix(0.05,0,0,0.05,151.8,0)" xlink:href="#ac"/><use transform="matrix(0.05,0,0,0.05,161.8,0)" xlink:href="#ak"/><use transform="matrix(0.05,0,0,0.05,171.8,0)" xlink:href="#aa"/><use transform="matrix(0.05,0,0,0.05,181.8,0)" xlink:href="#am"/></g><g id="Q"><use transform="matrix(0.05,0,0,0.05,0,0)" xlink:href="#ac"/><use transform="matrix(0.05,0,0,0.05,10,0)" xlink:href="#ak"/><use transform="matrix(0.05,0,0,0.05,20,0)" xlink:href="#ad"/><use transform="matrix(0.05,0,0,0.05,25.950000000000003,0)" xlink:href="#aw"/><use transform="matrix(0.05,0,0,0.05,35.95,0)" xlink:href="#at"/><use transform="matrix(0.05,0,0,0.05,39.900000000000006,0)" xlink:href="#at"/><use transform="matrix(0.05,0,0,0.05,43.85000000000001,0)" xlink:href="#am"/><use transform="matrix(0.05,0,0,0.05,58.80000000000001,0)" xlink:href="#ac"/><use transform="matrix(0.05,0,0,0.05,68.80000000000001,0)" xlink:href="#ak"/><use transform="matrix(0.05,0,0,0.05,78.80000000000001,0)" xlink:href="#ap"/><use transform="matrix(0.05,0,0,0.05,83.80000000000001,0)" xlink:href="#bu"/><use transform="matrix(0.05,0,0,0.05,96.75000000000001,0)" xlink:href="#al"/><use transform="matrix(0.05,0,0,0.05,106.75,0)" xlink:href="#ap"/><use transform="matrix(0.05,0,0,0.05,111.75,0)" xlink:href="#ac"/></g><g id="R"><use transform="matrix(0.05,0,0,0.05,0,0)" xlink:href="#an"/><use transform="matrix(0.05,0,0,0.05,9,0)" xlink:href="#aw"/><use transform="matrix(0.05,0,0,0.05,19,0)" xlink:href="#aa"/><use transform="matrix(0.05,0,0,0.05,29,0)" xlink:href="#ad"/><use transform="matrix(0.05,0,0,0.05,34.95,0)" xlink:href="#ab"/><use transform="matrix(0.05,0,0,0.05,43.95,0)" xlink:href="#ac"/></g><g id="S"><use transform="matrix(0.05,0,0,0.05,0,0)" xlink:href="#ap"/><use transform="matrix(0.05,0,0,0.05,5,0)" xlink:href="#ac"/><use transform="matrix(0.05,0,0,0.05,15,0)" xlink:href="#al"/><use transform="matrix(0.05,0,0,0.05,25,0)" xlink:href="#an"/><use transform="matrix(0.05,0,0,0.05,34,0)" xlink:href="#ao"/><use transform="matrix(0.05,0,0,0.05,44,0)" xlink:href="#ac"/><use transform="matrix(0.05,0,0,0.05,54,0)" xlink:href="#ad"/><use transform="matrix(0.05,0,0,0.05,59.95,0)" xlink:href="#aB"/><use transform="matrix(0.05,0,0,0.05,64.95,0)" xlink:href="#af"/></g><g id="T"><use transform="matrix(0.05,0,0,0.05,0,0)" xlink:href="#an"/><use transform="matrix(0.05,0,0,0.05,9,0)" xlink:href="#aw"/><use transform="matrix(0.05,0,0,0.05,19,0)" xlink:href="#af"/><use transform="matrix(0.05,0,0,0.05,29,0)" xlink:href="#ac"/></g><path fill="#333" d="M194-120c59 52 2 134-86 124-53-6-90-18-98-63l31-7c8 30 29 43 70 43 46 0 84-17 71-62-32-43-135-20-137-98-3-89 178-90 191-16l-30 9c-8-48-127-53-127 5 0 53 81 35 115 65" id="bw"/><g id="U"><use transform="matrix(0.05,0,0,0.05,0,0)" xlink:href="#bw"/><use transform="matrix(0.05,0,0,0.05,12,0)" xlink:href="#ap"/><use transform="matrix(0.05,0,0,0.05,17,0)" xlink:href="#aa"/><use transform="matrix(0.05,0,0,0.05,27,0)" xlink:href="#af"/><use transform="matrix(0.05,0,0,0.05,37,0)" xlink:href="#ac"/><use transform="matrix(0.05,0,0,0.05,47,0)" xlink:href="#ak"/><use transform="matrix(0.05,0,0,0.05,57,0)" xlink:href="#ap"/></g><path fill="#333" d="M151-220L108 0H75l42-220H32l6-28h203l-5 28h-85" id="bx"/><g id="V"><use transform="matrix(0.05,0,0,0.05,0,0)" xlink:href="#bx"/><use transform="matrix(0.05,0,0,0.05,9.3,0)" xlink:href="#ac"/><use transform="matrix(0.05,0,0,0.05,19.3,0)" xlink:href="#al"/><use transform="matrix(0.05,0,0,0.05,29.3,0)" xlink:href="#an"/><use transform="matrix(0.05,0,0,0.05,38.3,0)" xlink:href="#ao"/><use transform="matrix(0.05,0,0,0.05,48.3,0)" xlink:href="#ac"/><use transform="matrix(0.05,0,0,0.05,58.29999999999999,0)" xlink:href="#ad"/></g><g id="W"><use transform="matrix(0.05,0,0,0.05,0,0)" xlink:href="#bt"/><use transform="matrix(0.05,0,0,0.05,12,0)" xlink:href="#af"/><use transform="matrix(0.05,0,0,0.05,22,0)" xlink:href="#am"/><use transform="matrix(0.05,0,0,0.05,36.95,0)" xlink:href="#ae"/><use transform="matrix(0.05,0,0,0.05,40.900000000000006,0)" xlink:href="#ak"/></g><g id="X"><use transform="matrix(0.05,0,0,0.05,0,0)" xlink:href="#al"/><use transform="matrix(0.05,0,0,0.05,10,0)" xlink:href="#an"/><use transform="matrix(0.05,0,0,0.05,19,0)" xlink:href="#ap"/><use transform="matrix(0.05,0,0,0.05,24,0)" xlink:href="#ae"/><use transform="matrix(0.05,0,0,0.05,27.950000000000003,0)" xlink:href="#aq"/><use transform="matrix(0.05,0,0,0.05,36.95,0)" xlink:href="#ac"/></g><g id="Y"><use transform="matrix(0.05,0,0,0.05,0,0)" xlink:href="#an"/><use transform="matrix(0.05,0,0,0.05,9,0)" xlink:href="#aw"/><use transform="matrix(0.05,0,0,0.05,19,0)" xlink:href="#am"/><use transform="matrix(0.05,0,0,0.05,33.95,0)" xlink:href="#au"/><use transform="matrix(0.05,0,0,0.05,43.95,0)" xlink:href="#at"/><use transform="matrix(0.05,0,0,0.05,47.900000000000006,0)" xlink:href="#ac"/><use transform="matrix(0.05,0,0,0.05,57.900000000000006,0)" xlink:href="#ap"/><use transform="matrix(0.05,0,0,0.05,62.900000000000006,0)" xlink:href="#ac"/><use transform="matrix(0.05,0,0,0.05,72.9,0)" xlink:href="#af"/></g><g id="Z"><use transform="matrix(0.05,0,0,0.05,0,0)" xlink:href="#an"/><use transform="matrix(0.05,0,0,0.05,9,0)" xlink:href="#al"/><use transform="matrix(0.05,0,0,0.05,19,0)" xlink:href="#ak"/><use transform="matrix(0.05,0,0,0.05,29,0)" xlink:href="#an"/><use transform="matrix(0.05,0,0,0.05,38,0)" xlink:href="#ac"/><use transform="matrix(0.05,0,0,0.05,48,0)" xlink:href="#at"/><use transform="matrix(0.05,0,0,0.05,51.95,0)" xlink:href="#ac"/><use transform="matrix(0.05,0,0,0.05,61.95,0)" xlink:href="#af"/></g></defs></g></svg>